<svg xmlns="http://www.w3.org/2000/svg" xmlns:xlink="http://www.w3.org/1999/xlink" width="1700" zoomAndPan="magnify" viewBox="0 0 1275 262.499992" height="350" preserveAspectRatio="xMidYMid meet" version="1.0"><defs><g/><clipPath id="da1ffdc11c"><path d="M 1112 63.042969 L 1192 63.042969 L 1192 253.183594 L 1112 253.183594 Z M 1112 63.042969 " clip-rule="nonzero"/></clipPath><clipPath id="61ff123501"><path d="M 1056.875 110 L 1136 110 L 1136 229 L 1056.875 229 Z M 1056.875 110 " clip-rule="nonzero"/></clipPath><clipPath id="c94b65d090"><path d="M 1168 110 L 1247.761719 110 L 1247.761719 229 L 1168 229 Z M 1168 110 " clip-rule="nonzero"/></clipPath></defs><g fill="#ffaa00" fill-opacity="1"><g transform="translate(-1.727998, 246.375723)"><g><path d="M 95.75 0 C 124.15625 0 139.140625 -17.890625 139.140625 -40.265625 C 139.140625 -59.0625 126.390625 -74.5 110.515625 -76.953125 C 124.609375 -79.859375 136.234375 -92.390625 136.234375 -111.1875 C 136.234375 -131.09375 121.6875 -149.203125 93.28125 -149.203125 L 14.765625 -149.203125 L 14.765625 0 Z M 46.53125 -122.140625 L 86.34375 -122.140625 C 97.09375 -122.140625 103.796875 -114.984375 103.796875 -105.8125 C 103.796875 -96.1875 97.09375 -89.25 86.34375 -89.25 L 46.53125 -89.25 Z M 46.53125 -62.1875 L 87.46875 -62.1875 C 100 -62.1875 106.703125 -54.140625 106.703125 -44.734375 C 106.703125 -34 99.546875 -27.0625 87.46875 -27.0625 L 46.53125 -27.0625 Z M 46.53125 -62.1875 "/></g></g></g><g fill="#ffaa00" fill-opacity="1"><g transform="translate(154.196931, 246.375723)"><g><path d="M 28.1875 -123.9375 C 37.578125 -123.9375 45.1875 -131.53125 45.1875 -140.9375 C 45.1875 -150.328125 37.578125 -157.9375 28.1875 -157.9375 C 19.015625 -157.9375 11.1875 -150.328125 11.1875 -140.9375 C 11.1875 -131.53125 19.015625 -123.9375 28.1875 -123.9375 Z M 42.5 0 L 42.5 -108.046875 L 14.09375 -108.046875 L 14.09375 0 Z M 42.5 0 "/></g></g></g><g fill="#ffaa00" fill-opacity="1"><g transform="translate(218.401359, 246.375723)"><g><path d="M 64.203125 2.6875 C 100 2.6875 121.46875 -23.265625 121.46875 -54.140625 C 121.46875 -84.78125 100 -110.734375 64.203125 -110.734375 C 28.640625 -110.734375 7.15625 -84.78125 7.15625 -54.140625 C 7.15625 -23.265625 28.640625 2.6875 64.203125 2.6875 Z M 64.203125 -22.59375 C 46.53125 -22.59375 36.6875 -37.140625 36.6875 -54.140625 C 36.6875 -70.90625 46.53125 -85.453125 64.203125 -85.453125 C 81.875 -85.453125 91.9375 -70.90625 91.9375 -54.140625 C 91.9375 -37.140625 81.875 -22.59375 64.203125 -22.59375 Z M 64.203125 -22.59375 "/></g></g></g><g fill="#ffaa00" fill-opacity="1"><g transform="translate(354.41619, 246.375723)"><g><path d="M 95.75 0 C 124.15625 0 139.140625 -17.890625 139.140625 -40.265625 C 139.140625 -59.0625 126.390625 -74.5 110.515625 -76.953125 C 124.609375 -79.859375 136.234375 -92.390625 136.234375 -111.1875 C 136.234375 -131.09375 121.6875 -149.203125 93.28125 -149.203125 L 14.765625 -149.203125 L 14.765625 0 Z M 46.53125 -122.140625 L 86.34375 -122.140625 C 97.09375 -122.140625 103.796875 -114.984375 103.796875 -105.8125 C 103.796875 -96.1875 97.09375 -89.25 86.34375 -89.25 L 46.53125 -89.25 Z M 46.53125 -62.1875 L 87.46875 -62.1875 C 100 -62.1875 106.703125 -54.140625 106.703125 -44.734375 C 106.703125 -34 99.546875 -27.0625 87.46875 -27.0625 L 46.53125 -27.0625 Z M 46.53125 -62.1875 "/></g></g></g><g fill="#ffaa00" fill-opacity="1"><g transform="translate(510.341145, 246.375723)"><g><path d="M 42.5 0 L 42.5 -149.203125 L 14.09375 -149.203125 L 14.09375 0 Z M 42.5 0 "/></g></g></g><g fill="#ffaa00" fill-opacity="1"><g transform="translate(574.545573, 246.375723)"><g><path d="M 64.203125 2.6875 C 100 2.6875 121.46875 -23.265625 121.46875 -54.140625 C 121.46875 -84.78125 100 -110.734375 64.203125 -110.734375 C 28.640625 -110.734375 7.15625 -84.78125 7.15625 -54.140625 C 7.15625 -23.265625 28.640625 2.6875 64.203125 2.6875 Z M 64.203125 -22.59375 C 46.53125 -22.59375 36.6875 -37.140625 36.6875 -54.140625 C 36.6875 -70.90625 46.53125 -85.453125 64.203125 -85.453125 C 81.875 -85.453125 91.9375 -70.90625 91.9375 -54.140625 C 91.9375 -37.140625 81.875 -22.59375 64.203125 -22.59375 Z M 64.203125 -22.59375 "/></g></g></g><g fill="#ffaa00" fill-opacity="1"><g transform="translate(710.56043, 246.375723)"><g><path d="M 64.203125 2.6875 C 100 2.6875 121.46875 -23.265625 121.46875 -54.140625 C 121.46875 -84.78125 100 -110.734375 64.203125 -110.734375 C 28.640625 -110.734375 7.15625 -84.78125 7.15625 -54.140625 C 7.15625 -23.265625 28.640625 2.6875 64.203125 2.6875 Z M 64.203125 -22.59375 C 46.53125 -22.59375 36.6875 -37.140625 36.6875 -54.140625 C 36.6875 -70.90625 46.53125 -85.453125 64.203125 -85.453125 C 81.875 -85.453125 91.9375 -70.90625 91.9375 -54.140625 C 91.9375 -37.140625 81.875 -22.59375 64.203125 -22.59375 Z M 64.203125 -22.59375 "/></g></g></g><g fill="#ffaa00" fill-opacity="1"><g transform="translate(846.575287, 246.375723)"><g><path d="M 176.71875 0 L 176.71875 -78.078125 C 176.71875 -100.21875 164.875 -110.734375 144.953125 -110.734375 C 128.40625 -110.734375 114.09375 -100.890625 107.828125 -91.046875 C 103.796875 -103.34375 93.734375 -110.734375 77.84375 -110.734375 C 61.296875 -110.734375 46.984375 -100.4375 42.5 -93.953125 L 42.5 -108.046875 L 14.09375 -108.046875 L 14.09375 0 L 42.5 0 L 42.5 -72.703125 C 46.75 -78.75 55.03125 -85.453125 64.875 -85.453125 C 76.5 -85.453125 80.984375 -78.296875 80.984375 -68.234375 L 80.984375 0 L 109.609375 0 L 109.609375 -72.921875 C 113.640625 -78.75 121.921875 -85.453125 131.984375 -85.453125 C 143.625 -85.453125 148.09375 -78.296875 148.09375 -68.234375 L 148.09375 0 Z M 176.71875 0 "/></g></g></g><g clip-path="url(#da1ffdc11c)"><path fill="#ffaa00" d="M 1174.417969 79.664062 L 1184.117188 65.007812 C 1185.128906 63.484375 1187.1875 63.0625 1188.710938 64.074219 C 1190.238281 65.082031 1190.65625 67.140625 1189.648438 68.667969 L 1179.8125 83.515625 C 1179.734375 83.628906 1179.640625 83.742188 1179.542969 83.859375 C 1186.960938 91.023438 1191.589844 101.070312 1191.589844 112.125 L 1191.589844 214.132812 C 1191.589844 235.785156 1173.863281 253.507812 1152.214844 253.507812 C 1130.5625 253.507812 1112.835938 235.785156 1112.835938 214.132812 L 1112.835938 112.125 C 1112.835938 101.070312 1117.449219 91.0625 1124.84375 83.875 C 1124.746094 83.761719 1124.632812 83.628906 1124.558594 83.496094 L 1114.722656 68.648438 C 1113.710938 67.121094 1114.132812 65.0625 1115.65625 64.054688 C 1117.179688 63.042969 1119.238281 63.464844 1120.25 64.988281 L 1129.96875 79.683594 C 1136.316406 75.320312 1143.980469 72.746094 1152.210938 72.746094 C 1160.445312 72.765625 1168.089844 75.320312 1174.417969 79.664062 Z M 1174.417969 79.664062 " fill-opacity="1" fill-rule="evenodd"/></g><g clip-path="url(#61ff123501)"><path fill="#f23370" d="M 1135.667969 116.601562 L 1135.667969 189.523438 C 1135.667969 211.175781 1117.941406 228.902344 1096.292969 228.902344 C 1074.640625 228.902344 1056.933594 211.175781 1056.933594 189.523438 C 1056.933594 171.550781 1102.695312 130.34375 1116.4375 116.601562 C 1125.375 107.664062 1135.667969 109.4375 1135.667969 116.601562 Z M 1135.667969 116.601562 " fill-opacity="1" fill-rule="evenodd"/></g><path fill="#d62027" d="M 1135.667969 116.601562 L 1135.667969 189.523438 C 1135.667969 204.714844 1126.941406 217.980469 1114.265625 224.539062 C 1113.351562 221.222656 1112.855469 217.734375 1112.855469 214.152344 L 1112.855469 120.109375 C 1114.207031 118.792969 1115.410156 117.632812 1116.417969 116.601562 C 1125.375 107.664062 1135.667969 109.4375 1135.667969 116.601562 Z M 1135.667969 116.601562 " fill-opacity="1" fill-rule="evenodd"/><g clip-path="url(#c94b65d090)"><path fill="#89d3df" d="M 1188.027344 116.601562 C 1201.769531 130.34375 1247.53125 171.550781 1247.53125 189.523438 C 1247.53125 211.175781 1229.824219 228.902344 1208.152344 228.902344 C 1186.5 228.902344 1168.777344 211.175781 1168.777344 189.527344 L 1168.777344 116.601562 C 1168.796875 109.4375 1179.085938 107.664062 1188.027344 116.601562 Z M 1188.027344 116.601562 " fill-opacity="1" fill-rule="evenodd"/></g><path fill="#221340" d="M 1188.027344 116.601562 C 1189.054688 117.632812 1190.257812 118.792969 1191.609375 120.109375 L 1191.609375 214.132812 C 1191.609375 217.734375 1191.113281 221.203125 1190.199219 224.519531 C 1177.503906 217.980469 1168.796875 204.714844 1168.796875 189.523438 L 1168.796875 116.601562 C 1168.796875 109.4375 1179.085938 107.664062 1188.027344 116.601562 Z M 1188.027344 116.601562 " fill-opacity="1" fill-rule="evenodd"/></svg>