<svg xmlns="http://www.w3.org/2000/svg" xmlns:xlink="http://www.w3.org/1999/xlink" width="1700" zoomAndPan="magnify" viewBox="0 0 1275 262.499992" height="350" preserveAspectRatio="xMidYMid meet" version="1.0"><defs><g/><clipPath id="30a08b80a6"><path d="M 986.90625 71 L 1125 71 L 1125 155 L 986.90625 155 Z M 986.90625 71 " clip-rule="nonzero"/></clipPath><clipPath id="c851164963"><path d="M 1135 71 L 1273.613281 71 L 1273.613281 155 L 1135 155 Z M 1135 71 " clip-rule="nonzero"/></clipPath><clipPath id="8734692a9c"><path d="M 1105 6.320312 L 1156 6.320312 L 1156 74 L 1105 74 Z M 1105 6.320312 " clip-rule="nonzero"/></clipPath><clipPath id="d2507e731a"><path d="M 216 157 L 323 157 L 323 262 L 216 262 Z M 216 157 " clip-rule="nonzero"/></clipPath><clipPath id="a8049b0a2a"><path d="M 547 157 L 654 157 L 654 262 L 547 262 Z M 547 157 " clip-rule="nonzero"/></clipPath><clipPath id="c04bb35e08"><path d="M 673 157 L 780 157 L 780 262 L 673 262 Z M 673 157 " clip-rule="nonzero"/></clipPath></defs><path fill="#b25517" d="M 1041.710938 174.355469 C 1041.710938 174.355469 1120.929688 175.117188 1124.742188 91.324219 C 1040.949219 95.136719 1041.710938 174.355469 1041.710938 174.355469 Z M 1041.710938 174.355469 " fill-opacity="1" fill-rule="nonzero"/><g clip-path="url(#30a08b80a6)"><path fill="#ffaa00" d="M 1062.355469 74.035156 C 1055.339844 75.691406 1048.402344 77.980469 1041.882812 81.222656 C 1028.863281 87.703125 1017.5 97.289062 1008.503906 108.480469 C 1003.988281 114.0625 1000.042969 120.085938 996.628906 126.359375 C 993.160156 132.667969 990.28125 139.035156 988.089844 146.144531 L 986.90625 150.015625 L 990.492188 151.023438 C 995.007812 152.300781 999.242188 153.101562 1003.644531 153.636719 C 1008.007812 154.171875 1012.394531 154.550781 1016.777344 154.550781 C 1021.160156 154.550781 1025.527344 154.4375 1029.855469 153.882812 C 1034.179688 153.445312 1038.449219 152.589844 1042.644531 151.539062 C 1038.316406 151.519531 1034.046875 151.519531 1029.796875 151.175781 C 1025.546875 150.871094 1021.351562 150.453125 1017.175781 149.746094 C 1013.023438 149.101562 1008.886719 148.316406 1004.824219 147.269531 C 1002.214844 146.601562 999.566406 145.859375 997.011719 145.058594 C 997.847656 143.246094 998.746094 141.4375 999.679688 139.683594 C 1001.183594 136.710938 1002.84375 133.8125 1004.578125 130.972656 C 1008.105469 125.328125 1012.011719 119.933594 1016.242188 114.863281 C 1024.746094 104.742188 1034.867188 96.144531 1046.34375 89.875 C 1052.042969 86.652344 1058.179688 84.269531 1064.46875 82.421875 C 1070.742188 80.382812 1077.335938 79.371094 1083.96875 78.667969 C 1097.292969 77.425781 1111 78.476562 1124.703125 80.707031 C 1111.914062 75.3125 1097.980469 72.203125 1083.722656 71.878906 C 1076.632812 71.878906 1069.425781 72.453125 1062.355469 74.035156 Z M 1062.355469 74.035156 " fill-opacity="1" fill-rule="nonzero"/></g><path fill="#b25517" d="M 1135.988281 91.324219 C 1139.800781 175.117188 1219.023438 174.355469 1219.023438 174.355469 C 1219.023438 174.355469 1219.785156 95.136719 1135.988281 91.324219 Z M 1135.988281 91.324219 " fill-opacity="1" fill-rule="nonzero"/><g clip-path="url(#c851164963)"><path fill="#ffaa00" d="M 1272.625 146.144531 C 1270.433594 139.035156 1267.554688 132.667969 1264.085938 126.359375 C 1260.671875 120.085938 1256.746094 114.0625 1252.210938 108.480469 C 1243.191406 97.289062 1231.851562 87.703125 1218.832031 81.222656 C 1212.3125 77.980469 1205.375 75.691406 1198.359375 74.035156 C 1191.308594 72.433594 1184.101562 71.878906 1176.972656 71.898438 C 1162.695312 72.203125 1148.78125 75.332031 1135.988281 80.726562 C 1149.695312 78.476562 1163.382812 77.425781 1176.722656 78.6875 C 1183.359375 79.390625 1189.953125 80.382812 1196.226562 82.441406 C 1202.535156 84.289062 1208.671875 86.671875 1214.351562 89.894531 C 1225.828125 96.164062 1235.949219 104.761719 1244.449219 114.882812 C 1248.703125 119.933594 1252.589844 125.328125 1256.117188 130.992188 C 1257.851562 133.832031 1259.527344 136.730469 1261.015625 139.703125 C 1261.949219 141.457031 1262.84375 143.265625 1263.683594 145.078125 C 1261.128906 145.878906 1258.480469 146.601562 1255.867188 147.289062 C 1251.808594 148.316406 1247.691406 149.117188 1243.515625 149.765625 C 1239.363281 150.472656 1235.148438 150.890625 1230.898438 151.195312 C 1226.648438 151.539062 1222.378906 151.539062 1218.050781 151.558594 C 1222.226562 152.605469 1226.496094 153.464844 1230.839844 153.902344 C 1235.167969 154.457031 1239.53125 154.570312 1243.917969 154.570312 C 1248.300781 154.570312 1252.683594 154.1875 1257.050781 153.65625 C 1261.472656 153.121094 1265.6875 152.320312 1270.203125 151.042969 L 1273.785156 150.035156 Z M 1272.625 146.144531 " fill-opacity="1" fill-rule="nonzero"/></g><path fill="#fbc027" d="M 1130.367188 233.144531 C 1130.367188 233.144531 1186.980469 177.597656 1130.367188 115.589844 C 1073.734375 177.597656 1130.367188 233.144531 1130.367188 233.144531 Z M 1130.367188 233.144531 " fill-opacity="1" fill-rule="nonzero"/><path fill="#ffaa00" d="M 1158.824219 159.429688 C 1167.078125 205.121094 1132.769531 239.625 1132.3125 240.082031 L 1130.367188 241.96875 L 1128.441406 240.082031 C 1127.964844 239.625 1093.652344 205.121094 1101.90625 159.429688 C 1079.699219 217.015625 1130.367188 261.945312 1130.367188 261.945312 C 1130.367188 261.945312 1181.03125 217.015625 1158.824219 159.429688 Z M 1158.824219 159.429688 " fill-opacity="1" fill-rule="nonzero"/><g clip-path="url(#8734692a9c)"><path fill="#b25517" d="M 1105.203125 69.039062 C 1112.179688 69.59375 1118.433594 71.460938 1122.96875 73.195312 C 1120.988281 70.738281 1117.421875 67.097656 1112.582031 65.4375 C 1112.582031 65.4375 1117.136719 50.933594 1130.367188 47.652344 C 1143.59375 50.933594 1148.152344 65.4375 1148.152344 65.4375 C 1143.308594 67.097656 1139.746094 70.738281 1137.761719 73.195312 C 1142.300781 71.460938 1148.550781 69.59375 1155.527344 69.039062 C 1155.527344 69.039062 1153.90625 57.46875 1144.359375 48.683594 C 1145.863281 46.492188 1147.179688 44.261719 1148.417969 41.914062 C 1150.34375 38.121094 1151.828125 34.082031 1152.667969 29.90625 C 1153.429688 25.714844 1153.394531 21.367188 1152.441406 17.289062 C 1151.582031 13.152344 1149.3125 9.585938 1146.949219 6.367188 C 1148.78125 9.949219 1150.363281 13.667969 1150.535156 17.59375 C 1150.800781 21.480469 1150.210938 25.3125 1148.933594 28.894531 C 1147.597656 32.480469 1145.710938 35.816406 1143.460938 38.902344 C 1142.03125 40.847656 1140.410156 42.773438 1138.734375 44.507812 C 1136.292969 43.039062 1133.53125 41.761719 1130.328125 40.828125 C 1127.125 41.78125 1124.382812 43.058594 1121.921875 44.507812 C 1120.246094 42.773438 1118.625 40.847656 1117.195312 38.902344 C 1114.964844 35.816406 1113.078125 32.480469 1111.722656 28.894531 C 1110.445312 25.292969 1109.875 21.460938 1110.121094 17.59375 C 1110.292969 13.667969 1111.875 9.949219 1113.707031 6.367188 C 1111.34375 9.585938 1109.074219 13.152344 1108.214844 17.289062 C 1107.261719 21.367188 1107.226562 25.695312 1107.988281 29.90625 C 1108.828125 34.082031 1110.3125 38.121094 1112.238281 41.914062 C 1113.457031 44.277344 1114.773438 46.507812 1116.296875 48.683594 C 1106.824219 57.46875 1105.203125 69.039062 1105.203125 69.039062 Z M 1105.203125 69.039062 " fill-opacity="1" fill-rule="nonzero"/></g><g fill="#ffaa00" fill-opacity="1"><g transform="translate(5.702367, 260.222485)"><g><path d="M 88.890625 0 C 115.265625 0 129.1875 -16.609375 129.1875 -37.390625 C 129.1875 -54.828125 117.34375 -69.15625 102.59375 -71.4375 C 115.6875 -74.140625 126.484375 -85.78125 126.484375 -103.21875 C 126.484375 -121.703125 112.984375 -138.53125 86.609375 -138.53125 L 13.703125 -138.53125 L 13.703125 0 Z M 43.203125 -113.390625 L 80.171875 -113.390625 C 90.140625 -113.390625 96.359375 -106.75 96.359375 -98.234375 C 96.359375 -89.3125 90.140625 -82.875 80.171875 -82.875 L 43.203125 -82.875 Z M 43.203125 -57.734375 L 81.203125 -57.734375 C 92.84375 -57.734375 99.0625 -50.265625 99.0625 -41.53125 C 99.0625 -31.5625 92.421875 -25.125 81.203125 -25.125 L 43.203125 -25.125 Z M 43.203125 -57.734375 "/></g></g></g><g fill="#ffaa00" fill-opacity="1"><g transform="translate(150.457645, 260.222485)"><g><path d="M 26.171875 -115.0625 C 34.890625 -115.0625 41.953125 -122.125 41.953125 -130.84375 C 41.953125 -139.5625 34.890625 -146.625 26.171875 -146.625 C 17.65625 -146.625 10.390625 -139.5625 10.390625 -130.84375 C 10.390625 -122.125 17.65625 -115.0625 26.171875 -115.0625 Z M 39.453125 0 L 39.453125 -100.3125 L 13.078125 -100.3125 L 13.078125 0 Z M 39.453125 0 "/></g></g></g><g clip-path="url(#d2507e731a)"><g fill="#ffaa00" fill-opacity="1"><g transform="translate(210.062801, 260.222485)"><g><path d="M 59.609375 2.5 C 92.84375 2.5 112.78125 -21.59375 112.78125 -50.265625 C 112.78125 -78.71875 92.84375 -102.8125 59.609375 -102.8125 C 26.578125 -102.8125 6.640625 -78.71875 6.640625 -50.265625 C 6.640625 -21.59375 26.578125 2.5 59.609375 2.5 Z M 59.609375 -20.96875 C 43.203125 -20.96875 34.0625 -34.46875 34.0625 -50.265625 C 34.0625 -65.84375 43.203125 -79.34375 59.609375 -79.34375 C 76.015625 -79.34375 85.359375 -65.84375 85.359375 -50.265625 C 85.359375 -34.46875 76.015625 -20.96875 59.609375 -20.96875 Z M 59.609375 -20.96875 "/></g></g></g></g><g fill="#ffaa00" fill-opacity="1"><g transform="translate(336.334236, 260.222485)"><g><path d="M 88.890625 0 C 115.265625 0 129.1875 -16.609375 129.1875 -37.390625 C 129.1875 -54.828125 117.34375 -69.15625 102.59375 -71.4375 C 115.6875 -74.140625 126.484375 -85.78125 126.484375 -103.21875 C 126.484375 -121.703125 112.984375 -138.53125 86.609375 -138.53125 L 13.703125 -138.53125 L 13.703125 0 Z M 43.203125 -113.390625 L 80.171875 -113.390625 C 90.140625 -113.390625 96.359375 -106.75 96.359375 -98.234375 C 96.359375 -89.3125 90.140625 -82.875 80.171875 -82.875 L 43.203125 -82.875 Z M 43.203125 -57.734375 L 81.203125 -57.734375 C 92.84375 -57.734375 99.0625 -50.265625 99.0625 -41.53125 C 99.0625 -31.5625 92.421875 -25.125 81.203125 -25.125 L 43.203125 -25.125 Z M 43.203125 -57.734375 "/></g></g></g><g fill="#ffaa00" fill-opacity="1"><g transform="translate(481.089537, 260.222485)"><g><path d="M 39.453125 0 L 39.453125 -138.53125 L 13.078125 -138.53125 L 13.078125 0 Z M 39.453125 0 "/></g></g></g><g clip-path="url(#a8049b0a2a)"><g fill="#ffaa00" fill-opacity="1"><g transform="translate(540.694694, 260.222485)"><g><path d="M 59.609375 2.5 C 92.84375 2.5 112.78125 -21.59375 112.78125 -50.265625 C 112.78125 -78.71875 92.84375 -102.8125 59.609375 -102.8125 C 26.578125 -102.8125 6.640625 -78.71875 6.640625 -50.265625 C 6.640625 -21.59375 26.578125 2.5 59.609375 2.5 Z M 59.609375 -20.96875 C 43.203125 -20.96875 34.0625 -34.46875 34.0625 -50.265625 C 34.0625 -65.84375 43.203125 -79.34375 59.609375 -79.34375 C 76.015625 -79.34375 85.359375 -65.84375 85.359375 -50.265625 C 85.359375 -34.46875 76.015625 -20.96875 59.609375 -20.96875 Z M 59.609375 -20.96875 "/></g></g></g></g><g clip-path="url(#c04bb35e08)"><g fill="#ffaa00" fill-opacity="1"><g transform="translate(666.966153, 260.222485)"><g><path d="M 59.609375 2.5 C 92.84375 2.5 112.78125 -21.59375 112.78125 -50.265625 C 112.78125 -78.71875 92.84375 -102.8125 59.609375 -102.8125 C 26.578125 -102.8125 6.640625 -78.71875 6.640625 -50.265625 C 6.640625 -21.59375 26.578125 2.5 59.609375 2.5 Z M 59.609375 -20.96875 C 43.203125 -20.96875 34.0625 -34.46875 34.0625 -50.265625 C 34.0625 -65.84375 43.203125 -79.34375 59.609375 -79.34375 C 76.015625 -79.34375 85.359375 -65.84375 85.359375 -50.265625 C 85.359375 -34.46875 76.015625 -20.96875 59.609375 -20.96875 Z M 59.609375 -20.96875 "/></g></g></g></g><g fill="#ffaa00" fill-opacity="1"><g transform="translate(793.237612, 260.222485)"><g><path d="M 164.078125 0 L 164.078125 -72.484375 C 164.078125 -93.046875 153.0625 -102.8125 134.578125 -102.8125 C 119.21875 -102.8125 105.921875 -93.671875 100.109375 -84.53125 C 96.359375 -95.953125 87.015625 -102.8125 72.28125 -102.8125 C 56.90625 -102.8125 43.609375 -93.25 39.453125 -87.234375 L 39.453125 -100.3125 L 13.078125 -100.3125 L 13.078125 0 L 39.453125 0 L 39.453125 -67.5 C 43.40625 -73.109375 51.09375 -79.34375 60.234375 -79.34375 C 71.03125 -79.34375 75.1875 -72.6875 75.1875 -63.34375 L 75.1875 0 L 101.765625 0 L 101.765625 -67.703125 C 105.5 -73.109375 113.1875 -79.34375 122.53125 -79.34375 C 133.328125 -79.34375 137.484375 -72.6875 137.484375 -63.34375 L 137.484375 0 Z M 164.078125 0 "/></g></g></g></svg>